<?xml version="1.0" encoding="utf-8"?>
<!-- Generator: Adobe Illustrator 27.3.1, SVG Export Plug-In . SVG Version: 6.00 Build 0)  -->
<svg version="1.1" id="router" xmlns="http://www.w3.org/2000/svg" xmlns:xlink="http://www.w3.org/1999/xlink" x="0px" y="0px"
	 viewBox="0 0 512 512" style="enable-background:new 0 0 512 512;" xml:space="preserve">
<style type="text/css">
	.st0{fill:#0D0D0D;}
	.st1{fill:#ED1C24;}
	.st2{fill:#FFFFFF;}
	.st3{opacity:0.81;fill:#0D0D0D;}
</style>
<rect x="5" y="315" class="st0" width="502" height="10"/>
<path class="st0" d="M425,407h-66v-10h66c41.2,0,74.9-32.5,76.9-73.1c-161-40.4-330.8-40.4-491.8,0c2,40.7,35.7,73.1,76.9,73.1h252
	v10H87c-48,0-87-39-87-87c0-2.3,1.5-4.3,3.8-4.8c165-42.1,339.5-42.1,504.5,0c2.2,0.6,3.8,2.6,3.8,4.8C512,368,473,407,425,407z"/>
<g>
	<path class="st1" d="M285.5,190.5c-16.2-16.2-42.7-16.2-58.9,0l-7.1-7.1c9.8-9.8,22.7-15.1,36.5-15.1c13.8,0,26.8,5.4,36.5,15.1
		L285.5,190.5z"/>
	<path class="st1" d="M318.5,157.5c-34.4-34.4-90.5-34.4-124.9,0l-7.1-7.1c38.3-38.3,100.7-38.3,139.1,0L318.5,157.5z"/>
	<path class="st1" d="M351.5,124.5c-52.6-52.6-138.3-52.6-190.9,0l-7.1-7.1c56.5-56.5,148.5-56.5,205.1,0L351.5,124.5z"/>
</g>
<path class="st0" d="M143,437h-30c-8.3,0-15-6.7-15-15v-20c0-2.8,2.2-5,5-5h50c2.8,0,5,2.2,5,5v20C158,430.3,151.3,437,143,437z"/>
<path class="st2" d="M108,407v15c0,2.8,2.2,5,5,5h30c2.8,0,5-2.2,5-5v-15H108z"/>
<path class="st3" d="M413.6,304.2l-9.2-4L492,99.1c1.2-2.8,0.9-5.8-0.7-8.3s-4.3-4-7.3-4c-3.5,0-6.6,2.1-8,5.3l-90.7,208.2l-9.2-4
	l90.7-208.2c3-6.8,9.7-11.3,17.2-11.3c6.3,0,12.2,3.2,15.7,8.5s4,11.9,1.5,17.8L413.6,304.2z"/>
<path class="st3" d="M11.9,103.1c-2.5-5.9-2-12.5,1.5-17.8s9.4-8.5,15.7-8.5c7.5,0,14.2,4.5,17.2,11.3L137,296.3l-9.2,4L37.1,92.1
	c-1.4-3.2-4.5-5.3-8-5.3c-3,0-5.7,1.5-7.3,4s-1.9,5.5-0.7,8.3l87.6,201.1l-9.2,4L11.9,103.1z"/>
<path class="st0" d="M399,437h-30c-8.3,0-15-6.7-15-15v-20c0-2.8,2.2-5,5-5h50c2.8,0,5,2.2,5,5v20C414,430.3,407.3,437,399,437z"/>
<path class="st2" d="M364,407v15c0,2.8,2.2,5,5,5h30c2.8,0,5-2.2,5-5v-15H364z"/>
<rect x="306" y="345" class="st0" width="20" height="10"/>
<rect x="266" y="345" class="st0" width="20" height="10"/>
<rect x="226" y="345" class="st0" width="20" height="10"/>
<rect x="186" y="345" class="st0" width="20" height="10"/>
</svg>
